<svg width="295" height="845" viewBox="0 0 295 845" fill="none" xmlns="http://www.w3.org/2000/svg">
<path d="M50.7877 41.8566V167.63H92.9306V41.8566H252.498V0H0V41.8566H50.7877Z" fill="#1BB9EB"/>
<path d="M92.9297 208.925V167.631C92.9297 167.631 127.509 167.427 173.974 167.427C220.439 167.427 252.857 128.432 252.497 90.8685V41.8569H295V99.0967C295 143.815 255.018 208.925 182.258 208.925H92.9297Z" fill="#1BB9EB"/>
<path d="M147.38 816.352C147.298 815.869 146.602 815.869 146.52 816.352C143.933 832.019 129.908 844.018 112.998 844.018H22.6205C10.0891 844.018 0.000946045 834.187 0.000946045 822.075V627.862H132.179V753.902H161.277V599.151H0.000946045V487.014H161.277V457.382H22.6205C10.1251 457.382 0.000946045 447.56 0.000946045 435.439V263.274C0.000946045 251.161 10.0983 241.331 22.6205 241.331H271.822C284.308 241.331 294.441 251.161 294.441 263.274V334.676H97.0014V364.317H294.441V822.066C294.441 834.187 284.308 844.009 271.822 844.009H180.874C163.964 844.009 149.967 832.019 147.389 816.343" fill="#1BB9EB"/>
</svg>
