<svg width="874" height="428" viewBox="0 0 874 428" fill="none" xmlns="http://www.w3.org/2000/svg">
<path d="M833.88 213.77C833.179 213.888 833.179 214.901 833.88 215.02C856.599 218.78 874 239.166 874 263.747V395.12C874 413.336 859.744 428 842.179 428H560.536V235.865H743.317V193.568H518.901V428H356.283V193.568H313.311V395.12C313.311 413.283 299.068 428 281.49 428H31.8213C14.2559 428 0 413.322 0 395.12V32.8796C0 14.73 14.2559 0 31.8213 0H135.367V287H178.352V0H842.166C859.744 0 873.987 14.73 873.987 32.8796V165.082C873.987 189.663 856.6 210.008 833.867 213.757" fill="#1BB9EB"/>
</svg>
